<svg width="677" height="647" viewBox="0 0 677 647" fill="none" xmlns="http://www.w3.org/2000/svg">
<path d="M637.991 339.882C623.517 391.5 589.139 449.083 534.749 470.175C452.574 502.059 449 568.144 296.892 575.96C273.17 577.176 251.018 575.999 230.451 572.777C219.389 571.043 208.8 568.7 198.672 565.802C106.722 539.65 52.9956 468.467 41.2564 389.921C25.7937 286.608 96.6079 230.216 142.942 196.753C189.276 163.29 237.383 45.6398 386.851 36.8276C409.639 35.4948 432.603 36.3877 455.134 40.0626C506.572 48.4477 560.407 72.4644 594.216 111.673C596.748 114.623 599.199 117.651 601.555 120.744C647.632 181.38 657.733 269.502 637.991 339.882Z" fill="#3F51B5"/>
<path opacity="0.7" d="M637.991 339.882C623.517 391.5 589.139 449.083 534.749 470.175C452.574 502.059 449 568.144 296.892 575.96C273.17 577.176 251.018 575.999 230.451 572.777C219.389 571.043 208.8 568.7 198.672 565.802C106.722 539.65 52.9956 468.467 41.2564 389.921C25.7937 286.608 96.6079 230.216 142.942 196.753C189.276 163.29 237.383 45.6398 386.851 36.8276C409.639 35.4948 432.603 36.3877 455.134 40.0626C506.572 48.4477 560.407 72.4644 594.216 111.673C596.748 114.623 599.199 117.651 601.555 120.744C647.632 181.38 657.733 269.502 637.991 339.882Z" fill="white"/>
<path opacity="0.3" d="M119.639 143.284V135.947C119.639 121.467 109.566 116.343 99.2618 116.343C88.7683 116.343 79.1143 123.719 79.1143 135.947V143.284H76.2438V183.89H122.28V143.284H119.639ZM100.629 165.592V172.942H96.2694V165.592C94.1437 164.764 92.6407 162.784 92.6407 160.455C92.6407 157.388 95.2404 154.904 98.4494 154.904C101.658 154.904 104.258 157.388 104.258 160.455C104.258 162.784 102.755 164.777 100.629 165.592ZM113.262 143.284H85.275V135.947C85.275 128.571 91.5575 122.567 99.2753 122.567C106.993 122.567 113.276 127.614 113.276 135.947V143.284H113.262Z" stroke="black" stroke-miterlimit="10"/>
<path opacity="0.3" d="M282.038 101.682H151.58C141.507 101.682 133.328 93.8793 133.328 84.239C133.328 74.6117 141.493 66.7959 151.58 66.7959H282.038C292.112 66.7959 300.29 74.5987 300.29 84.239C300.277 93.8664 292.112 101.682 282.038 101.682Z" stroke="black" stroke-miterlimit="10"/>
<g opacity="0.3">
<path d="M168.045 82.6214L171.85 86.6328L170.022 87.9397L167.192 83.1778L164.389 87.9397L162.561 86.6328L166.325 82.6214L160.76 81.5215L161.437 79.4252L166.677 81.625L166.028 76.2031H168.329L167.72 81.625L172.96 79.464L173.637 81.5603L168.045 82.6214Z" fill="black"/>
<path d="M182.221 82.6214L186.026 86.6328L184.198 87.9397L181.368 83.1778L178.566 87.9397L176.738 86.6328L180.502 82.6214L174.923 81.5215L175.6 79.4252L180.84 81.625L180.19 76.2031H182.492L181.883 81.625L187.123 79.464L187.8 81.5603L182.221 82.6214Z" fill="black"/>
<path d="M196.384 82.6214L200.189 86.6328L198.361 87.9397L195.531 83.1778L192.728 87.9397L190.901 86.6328L194.665 82.6214L189.1 81.5215L189.777 79.4252L195.017 81.625L194.367 76.2031H196.669L196.059 81.625L201.299 79.464L201.976 81.5603L196.384 82.6214Z" fill="black"/>
<path d="M210.561 82.6214L214.365 86.6328L212.537 87.9397L209.708 83.1778L206.905 87.9397L205.077 86.6328L208.841 82.6214L203.276 81.5215L203.953 79.4252L209.193 81.625L208.543 76.2031H210.845L210.236 81.625L215.476 79.464L216.153 81.5603L210.561 82.6214Z" fill="black"/>
<path d="M224.737 82.6214L228.542 86.6328L226.714 87.9397L223.884 83.1778L221.081 87.9397L219.253 86.6328L223.017 82.6214L217.453 81.5215L218.13 79.4252L223.369 81.625L222.72 76.2031H225.021L224.412 81.625L229.652 79.464L230.329 81.5603L224.737 82.6214Z" fill="black"/>
<path d="M238.913 82.6214L242.718 86.6328L240.89 87.9397L238.06 83.1778L235.258 87.9397L233.43 86.6328L237.194 82.6214L231.615 81.5215L232.292 79.4252L237.532 81.625L236.882 76.2031H239.184L238.575 81.625L243.815 79.464L244.492 81.5603L238.913 82.6214Z" fill="black"/>
<path d="M253.076 82.6214L256.881 86.6328L255.053 87.9397L252.223 83.1778L249.42 87.9397L247.593 86.6328L251.357 82.6214L245.792 81.5215L246.469 79.4252L251.709 81.625L251.059 76.2031H253.361L252.751 81.625L257.991 79.464L258.668 81.5603L253.076 82.6214Z" fill="black"/>
<path d="M267.253 82.6214L271.057 86.6328L269.229 87.9397L266.4 83.1778L263.597 87.9397L261.769 86.6328L265.533 82.6214L259.968 81.5215L260.645 79.4252L265.885 81.625L265.235 76.2031H267.537L266.928 81.625L272.168 79.464L272.845 81.5603L267.253 82.6214Z" fill="black"/>
</g>
<path opacity="0.3" d="M113.343 304.66C112.138 302.667 110.459 301.541 108.686 301.541H105.612V298.914C107.805 296.443 109.227 292.703 109.227 288.86C109.227 282.26 105.07 276.903 99.9387 276.903C94.8071 276.903 90.6503 282.248 90.6503 288.86C90.6503 292.561 91.9501 296.171 94.0082 298.63V301.541H89.9056C88.0912 301.541 86.3717 302.667 85.1395 304.66L79.5746 313.614H98.3952H100.453H118.759L113.343 304.66Z" stroke="black" stroke-miterlimit="10"/>
<path opacity="0.3" d="M126.356 308.51C132.515 294.301 125.455 278.011 110.587 272.125C95.719 266.24 78.6736 272.987 72.515 287.196C66.3564 301.405 73.4167 317.695 88.2845 323.581C103.152 329.467 120.198 322.719 126.356 308.51Z" stroke="black" stroke-miterlimit="10"/>
<g opacity="0.2">
<path d="M317.283 418.932C266.846 392.004 232.658 340.477 232.658 281.458C232.658 194.695 306.519 124.094 397.318 124.094C408.651 124.094 419.713 125.22 430.423 127.316L426.226 140.774L473.02 130.137L439.982 96.7393L435.974 109.589C423.504 107.027 410.587 105.668 397.331 105.668C295.903 105.668 213.377 184.524 213.377 281.471C213.377 349.38 253.875 408.399 312.991 437.669L301.346 419.243L317.283 418.932Z" fill="black"/>
<path d="M465.18 118.064L479.627 132.674L461.876 136.711C520.654 160.754 561.951 216.577 561.951 281.458C561.951 368.221 488.09 438.821 397.291 438.821C380.718 438.821 364.713 436.453 349.616 432.079L355.33 422.18L307.25 423.073L332.096 462.424L340.098 448.552C358.106 454.194 377.319 457.261 397.277 457.261C498.705 457.261 581.232 378.391 581.232 281.458C581.259 207.415 533.11 143.932 465.18 118.064Z" fill="black"/>
</g>
<path d="M614.757 89.5837L583.75 83.9289L583.696 84.0325C582.152 87.0216 579.62 88.6908 577.291 88.2638L575.951 88.018C573.609 87.5909 571.903 85.1582 571.618 81.8327L571.605 81.7162L540.598 76.0614C531.96 74.4827 523.632 79.9046 521.981 88.1474L481.767 283.166C480.819 287.902 484.069 292.47 489.024 293.376L576.506 309.331C581.462 310.237 586.241 307.131 587.189 302.395L627.403 107.376C629.055 99.1205 623.395 91.1624 614.757 89.5837Z" fill="#3F51B5" stroke="#37474F" stroke-miterlimit="10" stroke-linecap="round" stroke-linejoin="round"/>
<path d="M626.536 111.724L627.403 107.376C629.055 99.1205 623.382 91.1624 614.757 89.5837L583.75 83.9289L583.696 84.0325C582.152 87.0216 579.62 88.6908 577.291 88.2638L575.951 88.018C573.609 87.5909 571.903 85.1582 571.618 81.8327L571.605 81.7162L540.598 76.0614C531.96 74.4827 523.632 79.9046 521.981 88.1474L521.114 92.4952L626.536 111.724Z" fill="white" stroke="#37474F" stroke-miterlimit="10" stroke-linecap="round" stroke-linejoin="round"/>
<path d="M619.739 174.172L623.517 155.241L621.73 154.917L633.009 104.853C634.66 96.5969 628.987 88.6388 620.362 87.0601L536.374 71.7391C527.735 70.1605 519.408 75.5823 517.756 83.8251L476.418 284.473C474.767 292.728 480.44 300.687 489.065 302.265L573.053 317.586C581.692 319.165 590.019 313.743 591.671 305.5L614.743 189.985L616.53 190.308L618.764 179.115L616.977 178.792L617.966 173.849L619.739 174.172ZM588.882 293.945C587.23 302.201 578.903 307.609 570.264 306.031L496.106 292.508C487.467 290.93 481.807 282.972 483.459 274.716L521.994 88.1471C523.646 79.8913 531.973 74.4824 540.612 76.0611L571.618 81.7159L571.632 81.8323C571.916 85.1579 573.622 87.5906 575.965 88.0177L577.305 88.2635C579.647 88.6905 582.166 87.0213 583.709 84.0321L583.764 83.9286L614.77 89.5834C623.409 91.1621 629.068 99.1202 627.417 107.376L588.882 293.945Z" fill="#707070" stroke="#37474F" stroke-miterlimit="10" stroke-linecap="round" stroke-linejoin="round"/>
<path d="M617.194 88.626L538.689 74.3144C529.536 72.6451 520.708 78.3775 518.961 87.125L478.801 281.885C477.055 290.632 483.053 299.069 492.206 300.738L570.711 315.05C579.864 316.719 588.692 310.987 590.439 302.24L630.598 107.48C632.345 98.7321 626.347 90.2953 617.194 88.626ZM588.882 293.945C587.23 302.201 578.903 307.61 570.264 306.031L496.106 292.509C487.467 290.93 481.807 282.972 483.459 274.716L521.994 88.1472C523.646 79.8915 531.973 74.4826 540.612 76.0613L571.618 81.716L571.632 81.8325C571.916 85.1581 573.622 87.5908 575.965 88.0178L577.305 88.2637C579.647 88.6907 582.166 87.0214 583.709 84.0323L583.764 83.9288L614.77 89.5836C623.409 91.1622 629.068 99.1203 627.417 107.376L588.882 293.945Z" fill="#37474F" stroke="#37474F" stroke-miterlimit="10" stroke-linecap="round" stroke-linejoin="round"/>
<path d="M578.673 83.747C578.821 82.9706 578.293 82.2201 577.481 82.0777C576.669 81.9354 575.883 82.44 575.734 83.2164C575.585 83.9928 576.113 84.7434 576.926 84.8857C577.738 85.028 578.524 84.5234 578.673 83.747Z" fill="#707070"/>
<path d="M533.11 81.0042C532.826 82.4276 531.052 82.6347 530.836 83.7087L530.822 83.7863L532.447 84.084L532.352 84.5627L530.186 84.1745L530.267 83.7734C530.565 82.2594 532.298 82.2594 532.569 80.9395C532.664 80.4607 532.542 80.1631 532.136 80.0984C531.729 80.0208 531.499 80.2666 531.418 80.6807L531.337 81.0948L530.822 81.0042L530.903 80.616C531.052 79.8914 531.486 79.4773 532.244 79.6196C533.002 79.749 533.259 80.2925 533.11 81.0042Z" fill="#37474F"/>
<path d="M535.805 81.4963L535.778 81.6128C535.683 82.0915 535.412 82.4021 534.992 82.4668C535.372 82.6868 535.493 83.075 535.399 83.5538L535.331 83.9161C535.182 84.6407 534.735 85.0419 533.977 84.8995C533.219 84.7572 532.961 84.2266 533.11 83.502L533.178 83.1785L533.693 83.2691L533.625 83.6314C533.544 84.0584 533.679 84.3431 534.072 84.4207C534.478 84.4984 534.695 84.2784 534.789 83.7996L534.857 83.4373C534.952 82.9715 534.789 82.7127 534.383 82.6221L534.085 82.5703L534.18 82.1045L534.505 82.1692C534.871 82.2209 535.141 82.0398 535.223 81.6257L535.263 81.4057C535.358 80.9269 535.236 80.6423 534.83 80.5646C534.437 80.487 534.207 80.7199 534.112 81.1469L534.058 81.3928L533.544 81.3022L533.584 81.0822C533.733 80.3576 534.167 79.9564 534.925 80.0988C535.697 80.2411 535.954 80.7717 535.805 81.4963Z" fill="#37474F"/>
<path d="M536.807 82.0398L536.671 82.6868L536.143 82.5962L536.279 81.9492L536.807 82.0398ZM536.292 84.6019L536.157 85.2489L535.629 85.1583L535.764 84.5113L536.292 84.6019Z" fill="#37474F"/>
<path d="M537.836 82.6737C538.039 82.4407 538.31 82.3631 538.648 82.4149C539.285 82.5313 539.474 83.023 539.339 83.6959L539.149 84.6147C539 85.3393 538.554 85.7405 537.795 85.5981C537.037 85.4558 536.78 84.9252 536.929 84.2006L536.996 83.89L537.511 83.9806L537.443 84.33C537.362 84.757 537.497 85.0417 537.89 85.1193C538.283 85.197 538.513 84.964 538.608 84.55L538.784 83.6312C538.865 83.2042 538.73 82.9195 538.337 82.8419C538.039 82.7901 537.795 82.9066 537.673 83.243L537.646 83.3466L537.132 83.256L537.782 80.668L539.718 81.0173L539.623 81.4832L538.174 81.2244L537.836 82.6737Z" fill="#37474F"/>
<path d="M542.372 82.6864L542.358 82.777L541.844 82.6864L541.871 82.57C541.952 82.1429 541.817 81.8583 541.424 81.7936C541.004 81.7159 540.774 81.9359 540.679 82.4406L540.463 83.5016C540.666 83.204 540.964 83.0746 541.356 83.1393C541.993 83.2558 542.182 83.7475 542.047 84.4204L541.898 85.1321C541.749 85.8567 541.289 86.2579 540.53 86.1155C539.772 85.9732 539.488 85.4426 539.637 84.718L540.111 82.3112C540.26 81.5606 540.706 81.1595 541.492 81.3018C542.25 81.4442 542.521 81.9618 542.372 82.6864ZM540.327 84.1357L540.192 84.8474C540.111 85.2744 540.232 85.5591 540.639 85.6367C541.031 85.7144 541.275 85.4815 541.356 85.0674L541.492 84.3557C541.573 83.9287 541.438 83.644 541.045 83.5663C540.639 83.4887 540.408 83.7087 540.327 84.1357Z" fill="#37474F"/>
<path d="M596.143 92.6932L594.746 92.4385L594.084 95.756L595.48 96.0108L596.143 92.6932Z" fill="#37474F"/>
<path d="M598.12 92.3699L596.724 92.1152L595.927 96.1065L597.323 96.3611L598.12 92.3699Z" fill="#37474F"/>
<path d="M600.064 92.2312L598.667 91.9766L597.777 96.4381L599.173 96.6927L600.064 92.2312Z" fill="#37474F"/>
<path d="M602.095 91.7497L600.698 91.4951L599.643 96.7829L601.039 97.0375L602.095 91.7497Z" fill="#37474F"/>
<path d="M618.25 100.078L609.909 98.5512L610.884 93.6729L619.225 95.1998L618.25 100.078ZM610.451 98.2019L617.871 99.5606L618.67 95.575L611.25 94.2163L610.451 98.2019Z" fill="#37474F"/>
<path d="M616.269 95.6073L611.867 94.8047L611.263 97.8299L615.665 98.6326L616.269 95.6073Z" fill="#37474F"/>
<path d="M619.622 97.2189L618.571 97.0273L618.343 98.1713L619.393 98.3629L619.622 97.2189Z" fill="#37474F"/>
<path d="M607.052 96.9464C606.998 96.9335 606.944 96.9076 606.903 96.8817C605.4 95.6006 604.101 96.2994 604.046 96.3253C603.898 96.4029 603.708 96.3641 603.613 96.2218C603.518 96.0794 603.573 95.8983 603.722 95.8077C603.789 95.7689 605.468 94.8501 607.323 96.4288C607.459 96.5453 607.472 96.7264 607.35 96.8558C607.269 96.9335 607.161 96.9593 607.052 96.9464Z" fill="#37474F"/>
<path d="M607.878 96.054C607.824 96.0411 607.77 96.0152 607.729 95.9893C605.549 94.1519 603.627 95.2 603.613 95.2C603.464 95.2906 603.275 95.2388 603.18 95.0965C603.085 94.9541 603.139 94.76 603.288 94.6824C603.315 94.6695 605.631 93.4013 608.149 95.5364C608.284 95.6529 608.298 95.8341 608.176 95.9635C608.109 96.0411 607.987 96.0799 607.878 96.054Z" fill="#37474F"/>
<path d="M608.691 95.0055C608.637 94.9925 608.582 94.9667 608.542 94.9408C605.78 92.6116 603.383 93.8926 603.288 93.9444C603.139 94.022 602.936 93.9832 602.855 93.8409C602.76 93.6985 602.814 93.5174 602.963 93.4268C602.99 93.4138 605.847 91.8481 608.961 94.4879C609.097 94.6043 609.11 94.7855 608.989 94.9149C608.907 94.9925 608.785 95.0184 608.691 95.0055Z" fill="#37474F"/>
<path d="M606.01 97.2704C605.929 97.6844 605.509 97.9562 605.076 97.8785C604.642 97.8009 604.358 97.3997 604.439 96.9857C604.52 96.5716 604.94 96.2999 605.373 96.3775C605.82 96.4551 606.105 96.8563 606.01 97.2704Z" fill="#37474F"/>
<path d="M584.644 238.083L511.162 224.677C507.235 223.966 504.663 220.342 505.421 216.603L517.187 157.661C517.932 153.908 521.723 151.45 525.636 152.175L599.118 165.58C603.045 166.292 605.617 169.915 604.859 173.655L593.093 232.597C592.348 236.336 588.557 238.795 584.644 238.083Z" fill="white" stroke="#37474F" stroke-miterlimit="10"/>
<path d="M539.217 143.362L538.269 136.452L539.501 136.672L540.165 141.952L542.832 137.267L543.956 137.474L540.395 143.569L539.664 147.205L538.499 146.998L539.217 143.362Z" fill="#37474F"/>
<path d="M543.983 140.023C544.294 138.471 545.296 137.617 546.921 137.914C548.56 138.212 549.155 139.363 548.857 140.903L547.815 146.144C547.503 147.684 546.501 148.551 544.863 148.253C543.238 147.956 542.643 146.791 542.954 145.264L543.983 140.023ZM544.091 145.536C543.902 146.468 544.213 147.076 545.053 147.231C545.919 147.386 546.42 146.92 546.596 146.002L547.666 140.645C547.842 139.726 547.571 139.105 546.705 138.949C545.852 138.794 545.337 139.273 545.147 140.179L544.091 145.536Z" fill="#37474F"/>
<path d="M550.035 146.623C549.859 147.542 550.117 148.15 550.983 148.318C551.836 148.473 552.324 147.995 552.5 147.076L554.043 139.325L555.154 139.532L553.624 147.218C553.312 148.758 552.364 149.651 550.726 149.353C549.101 149.056 548.573 147.891 548.871 146.364L550.401 138.678L551.565 138.885L550.035 146.623Z" fill="#37474F"/>
<path d="M558.701 140.166C560.366 140.464 560.908 141.409 560.597 142.91L560.434 143.738C560.218 144.851 559.662 145.472 558.701 145.588C559.622 146.041 559.825 146.856 559.608 147.943L559.297 149.522C559.202 149.975 559.134 150.389 559.27 150.777L558.078 150.557C557.997 150.247 557.997 149.975 558.132 149.289L558.444 147.697C558.674 146.559 558.186 146.093 557.198 145.912L556.359 145.756L555.492 150.091L554.314 149.871L556.345 139.739L558.701 140.166ZM557.442 144.902C558.376 145.071 558.999 144.889 559.216 143.789L559.405 142.819C559.581 141.9 559.337 141.37 558.457 141.201L557.306 140.994L556.562 144.747L557.442 144.902Z" fill="#37474F"/>
<path d="M568.842 144.566L568.666 145.485L567.543 145.277L567.732 144.307C567.908 143.401 567.651 142.78 566.784 142.612C565.931 142.457 565.43 142.935 565.254 143.854L564.185 149.211C564.009 150.13 564.293 150.751 565.133 150.906C565.999 151.062 566.487 150.583 566.663 149.664L566.92 148.344L568.044 148.551L567.786 149.806C567.475 151.346 566.514 152.213 564.889 151.916C563.264 151.618 562.709 150.466 563.02 148.927L564.063 143.686C564.374 142.146 565.336 141.279 566.947 141.577C568.599 141.874 569.154 143.026 568.842 144.566Z" fill="#37474F"/>
<path d="M569.831 144.733C570.142 143.181 571.144 142.327 572.769 142.624C574.407 142.922 575.017 144.073 574.705 145.613L573.663 150.854C573.351 152.394 572.349 153.261 570.711 152.963C569.086 152.666 568.49 151.501 568.802 149.974L569.831 144.733ZM569.939 150.259C569.75 151.19 570.061 151.799 570.901 151.954C571.767 152.109 572.268 151.643 572.458 150.725L573.527 145.367C573.703 144.449 573.419 143.828 572.566 143.672C571.713 143.517 571.198 143.996 571.022 144.902L569.939 150.259Z" fill="#37474F"/>
<path d="M578.794 143.841C580.446 144.139 581.015 145.239 580.704 146.805L579.688 151.916C579.377 153.469 578.429 154.284 576.777 153.986L574.286 153.533L576.317 143.401L578.794 143.841ZM576.966 152.951C577.819 153.106 578.32 152.679 578.51 151.748L579.553 146.533C579.742 145.601 579.431 145.019 578.564 144.864L577.291 144.631L575.68 152.718L576.966 152.951Z" fill="#37474F"/>
<path d="M585.199 149.664L584.996 150.673L582.41 150.194L581.692 153.804L584.874 154.387L584.671 155.409L580.311 154.607L582.342 144.475L586.702 145.277L586.499 146.299L583.317 145.717L582.626 149.185L585.199 149.664Z" fill="#37474F"/>
<path d="M531.066 184.433C531.905 183.514 533.016 183.139 534.356 183.385C536.929 183.851 537.714 185.87 537.172 188.6L536.428 192.34C535.846 195.264 534.004 196.907 530.944 196.351C527.884 195.795 526.841 193.621 527.424 190.696L527.681 189.415L529.766 189.79L529.482 191.214C529.143 192.935 529.671 194.112 531.269 194.397C532.867 194.695 533.815 193.789 534.167 192.068L534.911 188.354C535.25 186.633 534.722 185.455 533.124 185.171C531.892 184.951 530.93 185.455 530.457 186.814L530.375 187.254L528.29 186.879L530.958 176.346L538.851 177.782L538.472 179.697L532.582 178.623L531.066 184.433Z" fill="#37474F"/>
<path d="M549.507 184.485L549.44 184.834L547.355 184.459L547.449 183.967C547.788 182.246 547.246 181.094 545.621 180.797C543.929 180.486 542.981 181.392 542.575 183.437L541.722 187.733C542.534 186.516 543.766 185.986 545.364 186.27C547.937 186.736 548.722 188.729 548.18 191.485L547.598 194.384C547.016 197.308 545.12 198.939 542.06 198.382C538.973 197.813 537.836 195.626 538.418 192.702L540.368 182.945C540.977 179.917 542.778 178.287 545.96 178.869C549.034 179.451 550.09 181.56 549.507 184.485ZM541.194 190.398L540.625 193.271C540.287 194.992 540.815 196.17 542.453 196.467C544.051 196.765 545.039 195.859 545.378 194.138L545.946 191.265C546.285 189.544 545.73 188.367 544.118 188.069C542.48 187.772 541.532 188.677 541.194 190.398Z" fill="#37474F"/>
<path d="M560.637 186.517L560.57 186.866L558.484 186.491L558.579 185.999C558.918 184.278 558.376 183.127 556.751 182.829C555.059 182.519 554.111 183.424 553.705 185.469L552.852 189.765C553.664 188.549 554.896 188.018 556.494 188.303C559.067 188.769 559.852 190.761 559.31 193.518L558.728 196.416C558.146 199.341 556.25 200.971 553.19 200.415C550.103 199.845 548.966 197.658 549.548 194.734L551.498 184.977C552.107 181.949 553.908 180.319 557.09 180.901C560.163 181.47 561.22 183.593 560.637 186.517ZM552.31 192.418L551.741 195.29C551.403 197.011 551.931 198.189 553.569 198.486C555.167 198.784 556.156 197.878 556.494 196.157L557.063 193.285C557.401 191.564 556.846 190.386 555.235 190.088C553.61 189.791 552.662 190.697 552.31 192.418Z" fill="#37474F"/>
<path d="M571.754 188.574L569.804 198.331C569.195 201.359 567.38 203.015 564.185 202.433C561.125 201.877 560.041 199.729 560.624 196.804L560.691 196.455L562.777 196.83L562.682 197.322C562.343 199.043 562.912 200.195 564.51 200.492C566.229 200.803 567.177 199.897 567.583 197.878L568.436 193.582C567.637 194.799 566.405 195.303 564.808 195.019C562.235 194.553 561.436 192.586 561.991 189.83L562.573 186.905C563.156 183.981 565.024 182.363 568.111 182.933C571.198 183.489 572.336 185.65 571.754 188.574ZM564.794 187.19L564.225 190.062C563.887 191.784 564.442 192.961 566.053 193.259C567.678 193.556 568.639 192.65 568.978 190.929L569.547 188.057C569.899 186.31 569.357 185.158 567.719 184.861C566.121 184.576 565.146 185.443 564.794 187.19Z" fill="#37474F"/>
<path d="M583.087 190.553L582.965 191.149C582.572 193.09 581.584 194.384 579.891 194.668C581.421 195.6 581.76 197.218 581.367 199.133L581.083 200.556C580.487 203.506 578.524 205.046 575.409 204.477C572.295 203.908 571.063 201.785 571.645 198.835L571.93 197.412C572.322 195.471 573.229 194.138 575.057 193.788C573.541 192.896 573.135 191.369 573.527 189.428L573.649 188.832C574.245 185.882 576.222 184.407 579.309 184.963C582.41 185.533 583.682 187.603 583.087 190.553ZM575.843 189.298L575.653 190.23C575.288 192.093 576.059 193.077 577.63 193.361C579.201 193.646 580.311 192.999 580.676 191.149L580.866 190.217C581.259 188.25 580.5 187.176 578.916 186.891C577.359 186.594 576.235 187.318 575.843 189.298ZM574.191 197.567L573.866 199.184C573.473 201.151 574.204 202.251 575.802 202.536C577.4 202.834 578.469 202.057 578.903 200.103L579.228 198.486C579.593 196.622 578.916 195.574 577.264 195.264C575.599 194.966 574.57 195.717 574.191 197.567Z" fill="#37474F"/>
<path d="M510.959 241.344L580.094 253.947" stroke="#37474F" stroke-miterlimit="10"/>
<path d="M508.386 254.232L577.508 266.836" stroke="#37474F" stroke-miterlimit="10"/>
<path d="M623.057 192.78L639.779 190.321" stroke="#37474F" stroke-miterlimit="10"/>
<path d="M620.484 211.22L629.488 213.678" stroke="#37474F" stroke-miterlimit="10"/>
<path d="M615.339 227.2L632.061 238.264" stroke="#37474F" stroke-miterlimit="10"/>
<path d="M462.757 223.474C464.571 223.474 466.033 222.076 466.033 220.342V194.475C466.033 192.741 464.571 191.343 462.757 191.343H462.608V181.224C462.608 174.327 456.758 168.737 449.542 168.737H163.848C156.631 168.737 150.781 174.327 150.781 181.224V369.851C150.781 376.748 156.631 382.338 163.848 382.338H449.542C456.758 382.338 462.608 376.748 462.608 369.851V302.175H462.757C464.571 302.175 466.033 300.777 466.033 299.043V273.176C466.033 271.442 464.571 270.045 462.757 270.045H462.608V266.771H462.757C464.571 266.771 466.033 265.373 466.033 263.639V237.772C466.033 236.038 464.571 234.641 462.757 234.641H462.608V223.474H462.757Z" fill="#37474F"/>
<path d="M450.977 177.058H162.453V374.004H450.977V177.058Z" fill="#3F51B5" stroke="#37474F" stroke-miterlimit="10"/>
<path d="M387.867 202.381H226.511V326.23H387.867V202.381Z" fill="#E3E3E3" stroke="#37474F" stroke-miterlimit="10"/>
<path d="M287.224 291.912V292.689H285.247V295.445H287.684V296.234H284.34V288.483H287.671V289.273H285.234V291.912H287.224Z" fill="#B2B2B2"/>
<path d="M289.309 296.222H288.497V288.471H289.648L291.53 294.074V288.471H292.329V296.222H291.394L289.323 289.959V296.222H289.309Z" fill="#B2B2B2"/>
<path d="M294.414 296.222V289.26H292.924V288.471H296.81V289.26H295.321V296.222H294.414Z" fill="#B2B2B2"/>
<path d="M300.29 291.912V292.689H298.313V295.445H300.75V296.234H297.42V288.483H300.75V289.273H298.313V291.912H300.29Z" fill="#B2B2B2"/>
<path d="M303.377 288.483C304.65 288.483 305.178 289.105 305.178 290.256V290.89C305.178 291.744 304.867 292.275 304.176 292.482C304.921 292.689 305.192 293.271 305.192 294.099V295.303C305.192 295.652 305.205 295.963 305.354 296.234H304.433C304.325 296.014 304.284 295.807 304.284 295.29V294.073C304.284 293.194 303.851 292.922 303.106 292.922H302.47V296.234H301.563V288.483H303.377ZM303.147 292.132C303.865 292.132 304.298 291.912 304.298 291.071V290.334C304.298 289.635 304.027 289.273 303.364 289.273H302.484V292.132H303.147Z" fill="#B2B2B2"/>
<path d="M311.515 290.347V291.046H310.662V290.308C310.662 289.609 310.377 289.195 309.714 289.195C309.064 289.195 308.766 289.609 308.766 290.308V294.397C308.766 295.096 309.064 295.51 309.714 295.51C310.377 295.51 310.662 295.083 310.662 294.397V293.388H311.515V294.345C311.515 295.523 310.933 296.299 309.687 296.299C308.441 296.299 307.872 295.523 307.872 294.345V290.334C307.872 289.156 308.455 288.38 309.687 288.38C310.933 288.406 311.515 289.169 311.515 290.347Z" fill="#B2B2B2"/>
<path d="M312.259 290.347C312.259 289.156 312.869 288.393 314.114 288.393C315.36 288.393 315.983 289.156 315.983 290.347V294.358C315.983 295.535 315.374 296.312 314.114 296.312C312.869 296.312 312.259 295.535 312.259 294.358V290.347ZM313.153 294.397C313.153 295.108 313.465 295.51 314.114 295.51C314.778 295.51 315.076 295.095 315.076 294.397V290.308C315.076 289.609 314.778 289.195 314.114 289.195C313.465 289.195 313.153 289.609 313.153 290.308V294.397Z" fill="#B2B2B2"/>
<path d="M318.732 288.483C319.991 288.483 320.573 289.208 320.573 290.411V294.319C320.573 295.51 319.991 296.234 318.732 296.234H316.836V288.483H318.732ZM318.718 295.445C319.368 295.445 319.679 295.057 319.679 294.345V290.36C319.679 289.648 319.368 289.26 318.704 289.26H317.73V295.432H318.718V295.445Z" fill="#B2B2B2"/>
<path d="M324.296 291.912V292.689H322.32V295.445H324.757V296.234H321.426V288.483H324.757V289.273H322.32V291.912H324.296Z" fill="#B2B2B2"/>
<path d="M375.126 243.284H238.967V257.971H375.126V243.284Z" fill="white" stroke="#37474F" stroke-miterlimit="10"/>
<path d="M375.126 266.576H238.967V281.263H375.126V266.576Z" fill="white" stroke="#37474F" stroke-miterlimit="10"/>
<path d="M326.287 299.702H313.437V314.389H326.287V299.702Z" fill="white" stroke="#37474F" stroke-miterlimit="10"/>
<path d="M309.917 299.702H297.068V314.389H309.917V299.702Z" fill="white" stroke="#37474F" stroke-miterlimit="10"/>
<path d="M293.561 299.702H280.711V314.389H293.561V299.702Z" fill="white" stroke="#37474F" stroke-miterlimit="10"/>
<path d="M277.204 299.702H264.937V314.389H277.204V299.702Z" fill="white" stroke="#37474F" stroke-miterlimit="10"/>
<path d="M343.117 299.702H329.794V314.389H343.117V299.702Z" fill="white" stroke="#37474F" stroke-miterlimit="10"/>
<path d="M313.681 219.19V216.369C313.681 211.788 309.782 208.074 305.002 208.074C300.209 208.074 296.323 211.801 296.323 216.369V219.19H296.16V234.795H313.857V219.19H313.681ZM305.517 227.769V230.603H303.838V227.769C303.025 227.445 302.443 226.682 302.443 225.789C302.443 224.612 303.445 223.654 304.677 223.654C305.909 223.654 306.911 224.612 306.911 225.789C306.911 226.682 306.342 227.445 305.517 227.769ZM310.377 219.19H299.613V216.369C299.613 213.535 302.023 211.232 304.988 211.232C307.954 211.232 310.364 213.535 310.364 216.369V219.19H310.377Z" fill="#37474F"/>
<path d="M285.965 252.421C285.965 253.119 286.249 253.533 286.913 253.533C287.562 253.533 287.847 253.106 287.847 252.421V246.494H288.686V252.369C288.686 253.546 288.118 254.323 286.872 254.323C285.64 254.323 285.071 253.533 285.071 252.369V246.494H285.965V252.421Z" fill="#B2B2B2"/>
<path d="M293.1 248.357V248.564H292.247V248.305C292.247 247.607 291.963 247.192 291.327 247.192C290.677 247.192 290.406 247.607 290.406 248.292C290.406 250.026 293.127 250.194 293.127 252.381C293.127 253.559 292.532 254.322 291.3 254.322C290.067 254.322 289.485 253.559 289.485 252.381V251.941H290.325V252.433C290.325 253.132 290.623 253.546 291.272 253.546C291.922 253.546 292.22 253.132 292.22 252.433C292.22 250.712 289.512 250.544 289.512 248.357C289.512 247.167 290.094 246.416 291.313 246.416C292.518 246.416 293.1 247.179 293.1 248.357Z" fill="#B2B2B2"/>
<path d="M296.783 249.923V250.7H294.806V253.456H297.244V254.245H293.913V246.494H297.244V247.283H294.806V249.923H296.783Z" fill="#B2B2B2"/>
<path d="M299.87 246.494C301.143 246.494 301.671 247.115 301.671 248.267V248.901C301.671 249.755 301.36 250.286 300.669 250.493C301.414 250.7 301.685 251.282 301.685 252.11V253.314C301.685 253.663 301.698 253.973 301.847 254.245H300.926C300.818 254.025 300.778 253.818 300.778 253.301V252.084C300.778 251.204 300.344 250.933 299.6 250.933H298.963V254.245H298.056V246.494H299.87ZM299.64 250.143C300.358 250.143 300.791 249.923 300.791 249.082V248.345C300.791 247.646 300.52 247.283 299.857 247.283H298.977V250.156H299.64V250.143Z" fill="#B2B2B2"/>
<path d="M305.219 254.245H304.406V246.494H305.557L307.439 252.097V246.494H308.238V254.245H307.304L305.232 247.982V254.245H305.219Z" fill="#B2B2B2"/>
<path d="M310.066 252.679L309.755 254.245H308.915L310.472 246.494H311.786L313.343 254.245H312.435L312.124 252.679H310.066ZM310.188 251.942H311.989L311.068 247.465L310.188 251.942Z" fill="#B2B2B2"/>
<path d="M317.025 254.232H316.159L314.818 248.073V254.245H314.033V246.494H315.292L316.619 252.679L317.906 246.494H319.165V254.245H318.312V248.008L317.025 254.232Z" fill="#B2B2B2"/>
<path d="M322.97 249.923V250.7H320.993V253.456H323.43V254.245H320.099V246.494H323.43V247.283H320.993V249.923H322.97Z" fill="#B2B2B2"/>
<path d="M287.197 273.188L288.429 274.482L287.833 274.909L286.913 273.369L286.005 274.909L285.41 274.482L286.628 273.188L284.827 272.839L285.044 272.166L286.737 272.878L286.533 271.131H287.278L287.075 272.878L288.768 272.179L288.984 272.852L287.197 273.188Z" fill="#B2B2B2"/>
<path d="M291.773 273.188L293.006 274.482L292.41 274.909L291.489 273.369L290.582 274.909L289.986 274.482L291.205 273.188L289.404 272.839L289.621 272.166L291.313 272.878L291.11 271.131H291.855L291.652 272.878L293.344 272.179L293.561 272.852L291.773 273.188Z" fill="#B2B2B2"/>
<path d="M296.35 273.188L297.582 274.482L296.986 274.909L296.066 273.369L295.158 274.909L294.563 274.482L295.781 273.188L293.98 272.839L294.197 272.166L295.89 272.878L295.686 271.131H296.431L296.228 272.878L297.921 272.179L298.137 272.852L296.35 273.188Z" fill="#B2B2B2"/>
<path d="M300.926 273.188L302.159 274.482L301.563 274.909L300.642 273.369L299.735 274.909L299.139 274.482L300.358 273.188L298.557 272.839L298.774 272.166L300.466 272.878L300.263 271.131H301.008L300.805 272.878L302.497 272.179L302.714 272.852L300.926 273.188Z" fill="#B2B2B2"/>
<path d="M305.489 273.188L306.722 274.482L306.126 274.909L305.205 273.369L304.298 274.909L303.702 274.482L304.921 273.188L303.12 272.839L303.337 272.166L305.029 272.878L304.826 271.131H305.571L305.368 272.878L307.06 272.179L307.277 272.852L305.489 273.188Z" fill="#B2B2B2"/>
<path d="M310.066 273.188L311.298 274.482L310.702 274.909L309.782 273.369L308.874 274.909L308.279 274.482L309.497 273.188L307.696 272.839L307.913 272.166L309.606 272.878L309.403 271.131H310.147L309.944 272.878L311.637 272.179L311.853 272.852L310.066 273.188Z" fill="#B2B2B2"/>
<path d="M314.642 273.188L315.875 274.482L315.279 274.909L314.358 273.369L313.451 274.909L312.855 274.482L314.074 273.188L312.273 272.839L312.49 272.166L314.182 272.878L313.979 271.131H314.724L314.521 272.878L316.213 272.179L316.43 272.852L314.642 273.188Z" fill="#B2B2B2"/>
<path d="M319.219 273.188L320.451 274.482L319.855 274.909L318.935 273.369L318.027 274.909L317.432 274.482L318.65 273.188L316.849 272.839L317.066 272.166L318.759 272.878L318.556 271.131H319.3L319.097 272.878L320.79 272.179L321.006 272.852L319.219 273.188Z" fill="#B2B2B2"/>
<path d="M320.844 625.92C368.68 625.92 407.459 591.096 407.459 548.138C407.459 505.18 368.68 470.355 320.844 470.355C273.007 470.355 234.228 505.18 234.228 548.138C234.228 591.096 273.007 625.92 320.844 625.92Z" fill="#37474F"/>
<path d="M319.016 621.87C366.852 621.87 405.631 587.046 405.631 544.088C405.631 501.13 366.852 466.306 319.016 466.306C271.18 466.306 232.401 501.13 232.401 544.088C232.401 587.046 271.18 621.87 319.016 621.87Z" fill="white" stroke="#37474F" stroke-miterlimit="10"/>
<path d="M319.016 611.234C360.302 611.234 393.77 581.172 393.77 544.088C393.77 507.005 360.302 476.942 319.016 476.942C277.73 476.942 244.262 507.005 244.262 544.088C244.262 581.172 277.73 611.234 319.016 611.234Z" fill="white" stroke="#37474F" stroke-miterlimit="10"/>
<path d="M339.732 498.889C309.728 498.889 285.396 528.094 285.396 564.132C285.396 587.372 295.524 607.766 310.77 619.334C313.289 619.541 315.834 619.658 318.407 619.658C349.941 619.658 377.455 604.22 392.132 581.329C393.378 575.856 394.055 570.097 394.055 564.145C394.068 528.094 369.737 498.889 339.732 498.889Z" fill="#37474F"/>
<path d="M286.046 534.706H250.652V542.794H286.046V534.706Z" fill="white" stroke="#37474F" stroke-miterlimit="10"/>
<path d="M331.5 586.777C361.307 586.777 385.47 565.081 385.47 538.317C385.47 511.553 361.307 489.856 331.5 489.856C301.693 489.856 277.529 511.553 277.529 538.317C277.529 565.081 301.693 586.777 331.5 586.777Z" fill="white" stroke="#37474F" stroke-miterlimit="10"/>
<path d="M331.5 578.78C356.379 578.78 376.547 560.664 376.547 538.317C376.547 515.97 356.379 497.854 331.5 497.854C306.621 497.854 286.452 515.97 286.452 538.317C286.452 560.664 306.621 578.78 331.5 578.78Z" fill="#37474F" stroke="#37474F" stroke-miterlimit="10"/>
<path d="M312.625 501.205C312.341 500.532 312.002 499.872 311.623 499.225C307.033 491.59 307.602 481.859 311.054 472.827" stroke="#37474F" stroke-miterlimit="10"/>
<path d="M313.343 517.289C313.343 517.289 315.753 508.541 312.625 501.204" stroke="white" stroke-miterlimit="10"/>
<path d="M329.415 499.237C324.825 491.603 325.393 481.872 328.846 472.84" stroke="#37474F" stroke-miterlimit="10"/>
<path d="M331.134 517.289C331.134 517.289 334.005 506.872 329.415 499.225" stroke="white" stroke-miterlimit="10"/>
<path d="M347.788 500.26C347.612 499.91 347.423 499.574 347.22 499.237C342.63 491.603 343.198 481.872 346.651 472.84" stroke="#37474F" stroke-miterlimit="10"/>
<path d="M348.939 517.289C348.939 517.289 351.566 507.778 347.788 500.26" stroke="white" stroke-miterlimit="10"/>
<path d="M520.126 466.151C520.126 466.151 518.717 466.228 516.199 466.487C513.802 458.723 506.64 435.767 501.928 423.901C496.2 409.486 488.401 389.106 483.202 380.656C478.003 372.206 478.517 367.237 468.633 359.279C458.749 351.321 449.907 354.802 449.907 354.802C449.907 354.802 448.35 348.837 438.466 345.86C428.582 342.884 415.069 348.837 415.069 348.837C415.069 348.837 412.984 345.356 403.113 346.352C393.229 347.348 389.586 355.798 389.586 355.798C389.586 355.798 369.303 317.03 361.504 314.054C353.705 311.078 345.906 318.531 349.021 325.48C352.135 332.442 375.545 371.21 378.66 380.151C381.774 389.093 388.544 404.013 388.544 404.013C388.544 404.013 366.176 388.601 359.419 387.113C352.663 385.625 342.779 384.629 337.051 390.594C331.324 396.559 344.85 398.047 355.777 407.494C366.704 416.94 384.387 438.808 392.701 452.719C401.028 466.642 418.711 469.127 426.51 477.072C432.007 482.675 439.806 490.478 443.95 494.619C441.336 497.219 440.036 498.941 440.036 498.941L457.205 539.197C457.205 539.197 460.847 533.723 475.403 522.789C489.958 511.855 535.209 498.436 535.209 498.436L520.126 466.151Z" fill="#37474F" stroke="#37474F" stroke-miterlimit="10"/>
<path d="M446.157 487.062C446.157 487.062 433.673 474.64 425.874 466.681C418.075 458.723 400.391 456.239 392.064 442.328C383.737 428.418 366.054 406.536 355.141 397.103C344.214 387.657 330.701 386.169 336.415 380.203C342.142 374.238 352.013 375.235 358.783 376.723C365.539 378.211 387.907 393.622 387.907 393.622C387.907 393.622 381.151 378.715 378.023 369.761C374.909 360.819 351.498 322.051 348.384 315.089C345.27 308.128 353.069 300.674 360.868 303.663C368.667 306.64 388.95 345.408 388.95 345.408C388.95 345.408 392.592 336.958 402.477 335.962C412.361 334.965 414.432 338.446 414.432 338.446C414.432 338.446 427.959 332.481 437.829 335.47C447.714 338.446 449.271 344.411 449.271 344.411C449.271 344.411 458.112 340.931 467.997 348.889C477.881 356.847 477.353 361.816 482.552 370.266C487.751 378.715 495.55 399.096 501.278 413.511C507.005 427.926 516.361 458.736 516.361 458.736L449.271 493.532L446.157 487.062Z" fill="white" stroke="#37474F" stroke-miterlimit="10"/>
<path d="M388.95 345.408L407.148 371.262" stroke="#37474F" stroke-miterlimit="10"/>
<path d="M414.432 338.459L431.073 363.304" stroke="#37474F" stroke-miterlimit="10"/>
<path d="M449.271 344.425L460.712 363.809" stroke="#37474F" stroke-miterlimit="10"/>
<path d="M395.923 415.854L398.306 422.453" stroke="#37474F" stroke-miterlimit="10"/>
<path d="M387.907 393.622L394.271 411.272" stroke="#37474F" stroke-miterlimit="10"/>
<path d="M417.032 377.228L421.189 382.688" stroke="#37474F" stroke-miterlimit="10"/>
<path d="M436.272 371.754L440.957 377.719" stroke="#37474F" stroke-miterlimit="10"/>
<path d="M461.755 368.777L464.869 378.224" stroke="#37474F" stroke-miterlimit="10"/>
<path d="M439.387 488.563C439.387 488.563 451.342 472.659 475.796 464.701C500.235 456.743 519.476 455.76 519.476 455.76L534.559 488.071C534.559 488.071 489.309 501.49 474.753 512.424C460.198 523.358 456.555 528.832 456.555 528.832L439.387 488.563Z" fill="white" stroke="#37474F" stroke-miterlimit="10"/>
<path d="M480.48 595.913C480.48 595.913 460.712 548.695 455.513 538.757C450.313 528.819 458.627 523.85 458.627 523.85C458.627 523.85 470.583 508.439 501.792 496.508C533.002 484.578 535.602 484.086 543.401 492.536C551.2 500.985 602.368 596.004 602.368 596.004" fill="white"/>
<path d="M480.48 595.913C480.48 595.913 460.712 548.695 455.513 538.757C450.313 528.819 458.627 523.85 458.627 523.85C458.627 523.85 470.583 508.439 501.792 496.508C533.002 484.578 535.602 484.086 543.401 492.536C551.2 500.985 602.368 596.004 602.368 596.004" stroke="#37474F" stroke-miterlimit="10"/>
<path d="M155.818 546.236C155.818 546.236 162.886 531.743 179.73 523.539C196.56 515.335 207.501 511.802 223.613 496.611C239.726 481.419 266.278 467.858 277.218 465.995C288.172 464.118 291.801 459.628 287.089 454.491C282.377 449.354 269.5 449.069 258.032 452.77C246.563 456.471 235.975 461 235.975 461C241.784 450.079 245.643 436.919 251.357 425.958C255.419 418.181 262.067 405.345 266.02 397.503C268.593 392.392 276.257 383.877 272.845 378.287C269.419 372.671 261.214 376.411 257.057 381.742C250.449 390.231 218.129 436.789 218.129 436.789C224.263 424.367 230.41 411.944 236.544 399.522C245.873 380.642 250.328 371.636 249.001 374.315C251.722 368.802 257.016 361.44 253.794 355.086C250.517 348.642 241.026 347.982 237.085 354.116C232.59 361.116 198.239 423.241 198.239 423.241C198.239 423.241 219.741 369.915 222.489 363.795C225.847 356.315 223.857 349.794 218.915 349.819C211.725 349.871 208.313 357.493 205.497 362.669C206.025 361.944 206.539 361.207 207.067 360.482C200.338 369.048 195.815 380.319 190.183 389.623C183.602 400.492 176.792 411.246 169.765 421.856C171.146 410.87 175.763 400.57 181.477 391.046C184.929 385.301 199.282 371.183 196.831 364.235C194.719 358.256 178.972 369.488 169.805 381.742C164.809 388.419 151.729 406.639 148.128 419.45C144.526 432.26 119.314 475.907 112.585 488.057C105.856 500.221 97.7723 521.689 97.7723 521.689L155.818 546.236Z" fill="#37474F" stroke="#37474F" stroke-miterlimit="10"/>
<path d="M175.032 534.512C175.032 534.512 162.06 519.347 137.16 512.851C112.247 506.355 92.9792 506.497 92.9792 506.497L80.0079 539.637C80.0079 539.637 126.03 550.364 141.276 560.418C156.522 570.473 160.503 575.713 160.503 575.713L175.032 534.512Z" fill="#37474F" stroke="#37474F" stroke-miterlimit="10"/>
<path d="M154.112 540.491C154.112 540.491 161.18 525.998 178.024 517.794C194.854 509.59 205.794 506.057 221.907 490.866C238.02 475.674 264.572 462.113 275.512 460.25C286.466 458.373 290.095 453.883 285.383 448.746C280.671 443.609 267.794 443.324 256.326 447.025C244.857 450.726 234.269 455.255 234.269 455.255C240.078 444.333 243.937 431.173 249.651 420.213C253.713 412.436 260.361 399.6 264.314 391.758C266.887 386.647 274.551 378.132 271.139 372.542C267.713 366.926 259.508 370.666 255.351 375.997C248.743 384.486 216.423 431.044 216.423 431.044C222.557 418.622 228.704 406.199 234.838 393.777C244.167 374.897 248.621 365.891 247.295 368.57C250.016 363.057 255.31 355.694 252.088 349.341C248.811 342.897 239.319 342.237 235.379 348.37C230.884 355.371 196.533 417.496 196.533 417.496C196.533 417.496 218.035 364.17 220.783 358.05C224.141 350.57 222.151 344.048 217.209 344.074C210.019 344.126 206.607 351.748 203.791 356.924C204.319 356.199 204.833 355.462 205.361 354.737C198.632 363.303 194.109 374.574 188.477 383.878C181.896 394.747 175.086 405.5 168.058 416.111C169.44 405.125 174.057 394.825 179.771 385.301C183.223 379.556 197.576 365.438 195.125 358.489C193.013 352.511 177.266 363.743 168.099 375.997C163.103 382.674 150.023 400.894 146.422 413.704C142.82 426.515 117.608 470.162 110.879 482.312C104.15 494.476 96.0663 515.943 96.0663 515.943L154.112 540.491Z" fill="white" stroke="#37474F" stroke-miterlimit="10"/>
<path d="M196.547 417.509L190.332 429.504" stroke="#37474F" stroke-miterlimit="10"/>
<path d="M216.437 431.057L211.59 437.061" stroke="#37474F" stroke-miterlimit="10"/>
<path d="M234.269 455.255L228.041 463.925" stroke="#37474F" stroke-miterlimit="10"/>
<path d="M202.071 449.562L201.57 454.725" stroke="#37474F" stroke-miterlimit="10"/>
<path d="M186.554 440.153L186.581 445.135" stroke="#37474F" stroke-miterlimit="10"/>
<path d="M163.726 429.763L164.985 438.238" stroke="#37474F" stroke-miterlimit="10"/>
<path d="M173.312 528.78C173.312 528.78 160.341 513.614 135.441 507.118C110.527 500.623 91.2596 500.765 91.2596 500.765L78.2883 533.904C78.2883 533.904 124.311 544.632 139.557 554.686C154.803 564.74 158.784 569.981 158.784 569.981L173.312 528.78Z" fill="white" stroke="#37474F" stroke-miterlimit="10"/>
<path d="M152.677 600.429C152.677 600.429 155.9 590.064 160.449 579.842C164.998 569.619 156.373 565.142 156.373 565.142C156.373 565.142 143.443 550.468 111.529 540.4C79.6152 530.333 76.9884 529.997 69.7445 538.886C62.5006 547.776 39.1983 601.231 39.1983 601.231" fill="white"/>
<path d="M152.677 600.429C152.677 600.429 155.9 590.064 160.449 579.842C164.998 569.619 156.373 565.142 156.373 565.142C156.373 565.142 143.443 550.468 111.529 540.4C79.6152 530.333 76.9884 529.997 69.7445 538.886C62.5006 547.776 39.1983 601.231 39.1983 601.231" stroke="#37474F" stroke-miterlimit="10"/>
</svg>
