<svg width="80" height="80" viewBox="0 0 80 80" fill="none" xmlns="http://www.w3.org/2000/svg">
<g clip-path="url(#clip0_2873_10597)">
<path fill-rule="evenodd" clip-rule="evenodd" d="M40.0026 18.3331C35.9322 18.334 31.9443 19.4815 28.4959 21.6442C25.0475 23.8068 22.2781 26.897 20.5048 30.5609C18.7316 34.2248 18.0263 38.3141 18.4697 42.3603C18.9132 46.4065 20.4875 50.2459 23.0122 53.4388C25.5369 56.6316 28.91 59.0487 32.7449 60.413C36.5799 61.7774 40.7216 62.0339 44.6956 61.1532C48.6696 60.2724 52.3152 58.29 55.2146 55.4331C58.114 52.5762 60.1499 48.9604 61.0893 44.9998H43.3359C42.0099 44.9998 40.7381 44.473 39.8004 43.5353C38.8627 42.5976 38.3359 41.3259 38.3359 39.9998C38.3359 38.6737 38.8627 37.4019 39.8004 36.4643C40.7381 35.5266 42.0099 34.9998 43.3359 34.9998H66.6693C67.9954 34.9998 69.2671 35.5266 70.2048 36.4643C71.1425 37.4019 71.6693 38.6737 71.6693 39.9998C71.6693 47.3223 69.1316 54.4185 64.4881 60.0805C59.8447 65.7424 53.3826 69.6202 46.2018 71.0537C39.021 72.4872 31.5653 71.3877 25.1038 67.9426C18.6424 64.4975 13.5746 58.9195 10.7631 52.1582C7.95162 45.397 7.57018 37.8703 9.68374 30.8595C11.7973 23.8486 16.2752 17.7869 22.3553 13.7062C28.4353 9.62549 35.7416 7.77798 43.0306 8.47816C50.3195 9.17834 57.1406 12.3829 62.3326 17.5465C62.7981 18.0096 63.1679 18.5599 63.4208 19.1659C63.6736 19.7719 63.8047 20.4218 63.8064 21.0785C63.8081 21.7352 63.6804 22.3857 63.4307 22.9931C63.181 23.6004 62.8141 24.1526 62.3509 24.6181C61.8878 25.0837 61.3375 25.4534 60.7315 25.7063C60.1255 25.9592 59.4756 26.0902 58.8189 26.0919C57.4927 26.0953 56.2195 25.5718 55.2793 24.6365C53.2718 22.6338 50.8894 21.0463 48.2681 19.9648C45.6469 18.8832 42.8382 18.3288 40.0026 18.3331Z" fill="#0070F4"/>
</g>
<defs>
<clipPath id="clip0_2873_10597">
<rect width="80" height="80" fill="white"/>
</clipPath>
</defs>
</svg>
