<svg width="80" height="80" viewBox="0 0 80 80" fill="none" xmlns="http://www.w3.org/2000/svg">
<g id="Iconly/Light-Outline/Setting">
<g id="Setting">
<g id="Group 3">
<mask id="mask0_3012_4785" style="mask-type:luminance" maskUnits="userSpaceOnUse" x="6" y="6" width="65" height="70">
<path id="Clip 2" fill-rule="evenodd" clip-rule="evenodd" d="M6.66797 6.66797H70.9508V75.738H6.66797V6.66797Z" fill="white"/>
</mask>
<g mask="url(#mask0_3012_4785)">
<path id="Fill 1" fill-rule="evenodd" clip-rule="evenodd" d="M24.009 58.1346C24.7724 58.1346 25.5357 58.2313 26.2824 58.4313C28.5357 59.038 30.4924 60.5446 31.6524 62.568C32.4057 63.838 32.8224 65.3213 32.8357 66.8346C32.8357 69.0013 34.5757 70.738 36.7157 70.738H40.8924C43.0224 70.738 44.7624 69.0113 44.7724 66.8813C44.759 64.528 45.679 62.2913 47.3624 60.608C49.0224 58.948 51.3424 57.9513 53.6624 58.018C55.1824 58.0546 56.6457 58.4646 57.9357 59.198C59.7924 60.2613 62.1624 59.628 63.2357 57.7946L65.449 54.1046C65.9424 53.2546 66.0857 52.188 65.8224 51.2046C65.5624 50.2213 64.909 49.368 64.029 48.8646C61.969 47.678 60.499 45.7646 59.889 43.4713C59.2857 41.2213 59.6157 38.7646 60.7924 36.7413C61.559 35.408 62.6824 34.2846 64.029 33.5113C65.8357 32.4546 66.469 30.0913 65.419 28.2513C65.3757 28.178 65.3357 28.1013 65.3024 28.0213L63.349 24.6346C62.2857 22.7846 59.919 22.148 58.0624 23.2046C56.0557 24.3913 53.669 24.7313 51.3757 24.128C49.0857 23.5346 47.1657 22.0846 45.969 20.038C45.2024 18.758 44.7857 17.268 44.7724 15.7513C44.8024 14.6113 44.4024 13.588 43.6757 12.838C42.9524 12.0913 41.9357 11.668 40.8924 11.668H36.7157C35.6824 11.668 34.7157 12.0713 33.9857 12.798C33.259 13.528 32.8624 14.498 32.869 15.5313C32.799 20.4046 28.8157 24.328 23.9924 24.328C22.4457 24.3113 20.9557 23.8946 19.6624 23.1213C17.8457 22.088 15.4724 22.7246 14.409 24.5746L12.1524 28.2846C11.119 30.078 11.7524 32.448 13.5924 33.518C16.3224 35.098 18.0257 38.0446 18.0257 41.2046C18.0257 44.3646 16.3224 47.308 13.5857 48.8913C11.7557 49.9513 11.1224 52.308 12.1824 54.1413L14.2857 57.768C14.8057 58.7046 15.6557 59.3813 16.639 59.658C17.619 59.9313 18.699 59.8146 19.599 59.3146C20.9224 58.538 22.4624 58.1346 24.009 58.1346ZM40.8924 75.738H36.7157C31.819 75.738 27.8357 71.758 27.8357 66.8613C27.829 66.258 27.6557 65.6313 27.3324 65.088C26.809 64.1746 25.9624 63.5213 24.9857 63.2613C24.0157 63.0013 22.9524 63.1446 22.079 63.6513C19.9857 64.818 17.5224 65.1013 15.269 64.468C13.019 63.8313 11.0757 62.2846 9.9357 60.2346L7.85237 56.6446C5.4157 52.418 6.8657 47.0013 11.0857 44.5613C12.2824 43.8713 13.0257 42.5846 13.0257 41.2046C13.0257 39.8246 12.2824 38.5346 11.0857 37.8446C6.86237 35.3913 5.4157 29.9613 7.84903 25.7346L10.109 22.0246C12.5124 17.8446 17.9457 16.3713 22.1824 18.8046C22.759 19.148 23.3857 19.3213 24.0224 19.328C26.099 19.328 27.8357 17.6146 27.869 15.508C27.8557 13.1846 28.7724 10.9546 30.4424 9.2713C32.119 7.5913 34.3457 6.66797 36.7157 6.66797H40.8924C43.279 6.66797 45.599 7.64797 47.2624 9.3513C48.9224 11.0646 49.839 13.4146 49.769 15.798C49.7757 16.3346 49.9524 16.9546 50.2724 17.498C50.8024 18.398 51.639 19.0313 52.6324 19.2913C53.6257 19.538 54.6657 19.4046 55.549 18.8813C59.8157 16.4446 65.2457 17.9046 67.6824 22.138L69.759 25.7346C69.8124 25.8313 69.859 25.9246 69.899 26.0213C72.1057 30.1913 70.6324 35.4413 66.5324 37.838C65.9357 38.1813 65.4524 38.6613 65.119 39.2413C64.6024 40.138 64.459 41.2046 64.719 42.1846C64.9857 43.1846 65.6224 44.0146 66.519 44.528C68.5424 45.6913 70.0524 47.6513 70.6557 49.9146C71.259 52.1746 70.929 54.628 69.7524 56.6513L67.539 60.338C65.1024 64.5246 59.6724 65.9746 55.449 63.5346C54.8857 63.2113 54.2357 63.0346 53.589 63.018H53.569C52.6057 63.018 51.6157 63.428 50.8957 64.1446C50.1657 64.8746 49.7657 65.848 49.7724 66.8813C49.749 71.778 45.7657 75.738 40.8924 75.738Z" fill="#019595"/>
</g>
</g>
<path id="Fill 4" fill-rule="evenodd" clip-rule="evenodd" d="M38.8179 34.915C35.3513 34.915 32.5313 37.7384 32.5313 41.205C32.5313 44.6717 35.3513 47.4884 38.8179 47.4884C42.2846 47.4884 45.1046 44.6717 45.1046 41.205C45.1046 37.7384 42.2846 34.915 38.8179 34.915ZM38.8179 52.4884C32.5946 52.4884 27.5312 47.4284 27.5312 41.205C27.5312 34.9817 32.5946 29.915 38.8179 29.915C45.0412 29.915 50.1046 34.9817 50.1046 41.205C50.1046 47.4284 45.0412 52.4884 38.8179 52.4884Z" fill="#019595"/>
</g>
</g>
</svg>
