<svg width="80" height="76" viewBox="0 0 80 76" fill="none" xmlns="http://www.w3.org/2000/svg">
<path d="M45.5614 0.107422V8.00461H77.5137C78.8869 8.00461 80 9.11773 80 10.491V64.8465C80 66.2196 78.8869 67.3327 77.5137 67.3327H45.5614V75.8931L0 67.8298V8.15648L45.5614 0.107578V0.107422ZM30.4427 33.266C30.5959 30.8382 30.0195 28.3771 28.3864 26.803C26.443 24.9295 25.1473 24.6013 19.5913 24.889L15.0778 25.1227V50.6157H19.6669V41.7659C28.1333 42.4885 30.0958 37.6048 30.4427 33.266ZM25.1683 33.266C24.9284 37.4085 23.0098 37.2341 19.6667 37.177V29.4741C23.4241 29.3416 25.0459 29.8563 25.1683 33.266ZM73.8164 33.2437L65.2052 42.2252L56.2036 33.2437H62.9338V21.4437H45.5614V44.5126L52.4789 37.7054L62.7698 48.0037C62.7698 48.0037 52.698 57.8271 52.4591 57.8271C52.2205 57.8271 45.5614 51.4766 45.5614 51.4766V64.7105H77.3559V10.6268H45.5614V17.1823H67.1948V33.2435L73.8164 33.2437Z" fill="#E87D00"/>
</svg>
